# xmcd
#
# Track frame offsets: 
#        150
#        23398
#        36827
#        55783
#        70182
#        91025
#        108802
#        128762
#        141286
#        159886
#        173892
#        191778
#
# Disc length: 2761 seconds
#
# Revision: 0
# Processed by: cddbd v1.5.2PL0 Copyright (c) Steve Scherf et al.
# Submitted via: ExactAudioCopyFreeDBPlugin 1.0
#
DISCID=900ac70c
DTITLE=Joe Filisko and Eric Noden - On The Move
DYEAR=2014
DGENRE=Blues
TTITLE0=On The Move
TTITLE1=Mystery
TTITLE2=Kick Myself
TTITLE3=Complicate
TTITLE4=Sonic Breakdown
TTITLE5=Always There For Me
TTITLE6=Buckeye Rag
TTITLE7=Peaceful Man
TTITLE8=I Like A Woman
TTITLE9=Sinkin' In Love
TTITLE10=Worst Enemy
TTITLE11=Down In New Orleans
EXTD=
EXTT0=
EXTT1=
EXTT2=
EXTT3=
EXTT4=
EXTT5=
EXTT6=
EXTT7=
EXTT8=
EXTT9=
EXTT10=
EXTT11=
PLAYORDER=
